Beauty.and.the.Geek.AU.S04E01.WEB-DL.AAC.H264-JunKee

Aired: 2012-10-04

TVDb Link: http://thetvdb.com/?tab=series&id=118001



General
Format                                   : MPEG-4
File size                                : 457 MiB
Duration                                 : 38m 21s
Overall bit rate                         : 1 665 Kbps

Video
Bit rate                                 : 1 500 Kbps
Width                                    : 624 pixels
Height                                   : 360 pixels
Display aspect ratio                     : 1.733
Frame rate                               : 25.000 fps
Stream size                              : 412 MiB (90%)

Audio
Format                                   : AAC
Bit rate                                 : 160 Kbps
Channel(s)                               : 2 channels
Sampling rate                            : 48.0 KHz
Compression mode                         : Lossy
Stream size                              : 43.9 MiB (10%)